<svg width="96" height="23" viewBox="0 0 96 23" fill="none" xmlns="http://www.w3.org/2000/svg">
<path d="M31.26 19V6.04H32.862V11.755H39.684V6.04H41.286V19H39.684V13.276H32.862V19H31.26ZM43.2708 19L47.6088 6.04H49.8408L54.1788 19H52.5138L48.4548 6.976H48.9588L44.9358 19H43.2708ZM45.3588 15.967V14.464H52.0908V15.967H45.3588ZM60.0914 19.27C59.2034 19.27 58.4294 19.141 57.7694 18.883C57.1154 18.619 56.5724 18.277 56.1404 17.857C55.7144 17.431 55.3904 16.975 55.1684 16.489L56.5904 15.607C56.7344 15.985 56.9564 16.336 57.2564 16.66C57.5624 16.984 57.9524 17.245 58.4264 17.443C58.9064 17.641 59.4824 17.74 60.1544 17.74C60.8384 17.74 61.4114 17.635 61.8734 17.425C62.3354 17.209 62.6804 16.918 62.9084 16.552C63.1424 16.18 63.2594 15.754 63.2594 15.274C63.2594 14.728 63.1244 14.308 62.8544 14.014C62.5844 13.714 62.2214 13.504 61.7654 13.384C61.3154 13.258 60.8174 13.186 60.2714 13.168C59.8454 13.15 59.5394 13.138 59.3534 13.132C59.1674 13.126 59.0414 13.123 58.9754 13.123C58.9154 13.123 58.8584 13.123 58.8044 13.123V11.593C58.8584 11.593 58.9724 11.593 59.1464 11.593C59.3204 11.593 59.5034 11.593 59.6954 11.593C59.8874 11.587 60.0404 11.581 60.1544 11.575C60.9584 11.533 61.5974 11.329 62.0714 10.963C62.5454 10.591 62.7824 10.081 62.7824 9.433C62.7824 8.761 62.5394 8.236 62.0534 7.858C61.5734 7.48 60.9464 7.291 60.1724 7.291C59.4404 7.291 58.8164 7.462 58.3004 7.804C57.7904 8.146 57.3824 8.587 57.0764 9.127L55.8434 8.074C56.2634 7.408 56.8454 6.859 57.5894 6.427C58.3394 5.989 59.2154 5.77 60.2174 5.77C60.7694 5.77 61.3004 5.845 61.8104 5.995C62.3264 6.139 62.7824 6.361 63.1784 6.661C63.5804 6.955 63.8984 7.33 64.1324 7.786C64.3664 8.236 64.4834 8.77 64.4834 9.388C64.4834 10.054 64.3424 10.645 64.0604 11.161C63.7784 11.677 63.4094 12.076 62.9534 12.358C63.5834 12.568 64.0754 12.916 64.4294 13.402C64.7834 13.888 64.9604 14.518 64.9604 15.292C64.9604 16.102 64.7534 16.804 64.3394 17.398C63.9314 17.992 63.3614 18.454 62.6294 18.784C61.8974 19.108 61.0514 19.27 60.0914 19.27ZM66.315 19L70.653 6.04H72.885L77.223 19H75.558L71.499 6.976H72.003L67.98 19H66.315ZM68.403 15.967V14.464H75.135V15.967H68.403ZM79.197 21.16V17.479C79.671 17.479 80.055 17.359 80.349 17.119C80.649 16.879 80.883 16.555 81.051 16.147C81.219 15.733 81.345 15.268 81.429 14.752C81.519 14.236 81.591 13.702 81.645 13.15C81.723 12.37 81.786 11.614 81.834 10.882C81.888 10.15 81.936 9.391 81.978 8.605C82.02 7.819 82.068 6.961 82.122 6.031L90.267 6.04V17.479H91.212V21.16H89.61V19H80.799V21.16H79.197ZM82.005 17.479H88.665V7.561L83.607 7.552C83.571 8.248 83.535 8.917 83.499 9.559C83.469 10.195 83.43 10.837 83.382 11.485C83.334 12.133 83.274 12.82 83.202 13.546C83.136 14.218 83.061 14.8 82.977 15.292C82.899 15.778 82.785 16.198 82.635 16.552C82.485 16.9 82.275 17.209 82.005 17.479Z" fill="#0C0C0C"/>
<path d="M0.646447 12.6464C0.451184 12.8417 0.451184 13.1583 0.646447 13.3536L3.82843 16.5355C4.02369 16.7308 4.34027 16.7308 4.53553 16.5355C4.7308 16.3403 4.7308 16.0237 4.53553 15.8284L1.70711 13L4.53553 10.1716C4.7308 9.97631 4.7308 9.65973 4.53553 9.46447C4.34027 9.2692 4.02369 9.2692 3.82843 9.46447L0.646447 12.6464ZM1 13.5H18V12.5H1V13.5Z" fill="#0C0C0C"/>
</svg>
